<svg aria-hidden="true" style="position: absolute; width: 0; height: 0; overflow: hidden;" version="1.1" xmlns="http://www.w3.org/2000/svg" xmlns:xlink="http://www.w3.org/1999/xlink">
<defs>
<symbol id="icon-share" viewBox="0 0 32 32">
<title>share</title>
<path d="M24 21.44c-1.013 0-1.92 0.4-2.613 1.027l-9.507-5.533c0.067-0.307 0.12-0.613 0.12-0.933s-0.053-0.627-0.12-0.933l9.4-5.48c0.72 0.667 1.667 1.080 2.72 1.080 2.213 0 4-1.787 4-4s-1.787-4-4-4c-2.213 0-4 1.787-4 4 0 0.32 0.053 0.627 0.12 0.933l-9.4 5.48c-0.72-0.667-1.667-1.080-2.72-1.080-2.213 0-4 1.787-4 4s1.787 4 4 4c1.053 0 2-0.413 2.72-1.080l9.493 5.547c-0.067 0.28-0.107 0.573-0.107 0.867 0 2.147 1.747 3.893 3.893 3.893s3.893-1.747 3.893-3.893c0-2.147-1.747-3.893-3.893-3.893z"></path>
</symbol>
<symbol id="icon-reply" viewBox="0 0 32 32">
<title>reply</title>
<path d="M13.333 12v-5.333l-9.333 9.333 9.333 9.333v-5.467c6.667 0 11.333 2.133 14.667 6.8-1.333-6.667-5.333-13.333-14.667-14.667z"></path>
</symbol>
<symbol id="icon-favorite_border" viewBox="0 0 32 32">
<title>favorite_border</title>
<path d="M22 4c-2.32 0-4.547 1.080-6 2.787-1.453-1.707-3.68-2.787-6-2.787-4.107 0-7.333 3.227-7.333 7.333 0 5.040 4.533 9.147 11.4 15.387l1.933 1.747 1.933-1.76c6.867-6.227 11.4-10.333 11.4-15.373 0-4.107-3.227-7.333-7.333-7.333zM16.133 24.733l-0.133 0.133-0.133-0.133c-6.347-5.747-10.533-9.547-10.533-13.4 0-2.667 2-4.667 4.667-4.667 2.053 0 4.053 1.32 4.76 3.147h2.493c0.693-1.827 2.693-3.147 4.747-3.147 2.667 0 4.667 2 4.667 4.667 0 3.853-4.187 7.653-10.533 13.4z"></path>
</symbol>
<symbol id="icon-favorite" viewBox="0 0 32 32">
<title>favorite</title>
<path d="M16 28.467l-1.933-1.76c-6.867-6.227-11.4-10.333-11.4-15.373 0-4.107 3.227-7.333 7.333-7.333 2.32 0 4.547 1.080 6 2.787 1.453-1.707 3.68-2.787 6-2.787 4.107 0 7.333 3.227 7.333 7.333 0 5.040-4.533 9.147-11.4 15.387l-1.933 1.747z"></path>
</symbol>
<symbol id="icon-filter_list" viewBox="0 0 32 32">
<title>filter_list</title>
<path d="M13.333 24h5.333v-2.667h-5.333v2.667zM4 8v2.667h24v-2.667h-24zM8 17.333h16v-2.667h-16v2.667z"></path>
</symbol>
<symbol id="icon-trending_up" viewBox="0 0 32 32">
<title>trending_up</title>
<path d="M21.333 8l3.053 3.053-6.507 6.507-5.333-5.333-9.88 9.893 1.88 1.88 8-8 5.333 5.333 8.4-8.387 3.053 3.053v-8z"></path>
</symbol>
<symbol id="icon-video" viewBox="0 0 32 32">
<title>video</title>
<path d="M22.667 14v-4.667c0-0.733-0.6-1.333-1.333-1.333h-16c-0.733 0-1.333 0.6-1.333 1.333v13.333c0 0.733 0.6 1.333 1.333 1.333h16c0.733 0 1.333-0.6 1.333-1.333v-4.667l5.333 5.333v-14.667l-5.333 5.333z"></path>
</symbol>
<symbol id="icon-photo" viewBox="0 0 32 32">
<title>photo</title>
<path d="M12.533 14l6.36-11.013c-0.933-0.2-1.893-0.32-2.893-0.32-3.2 0-6.133 1.133-8.427 3l4.88 8.467 0.080-0.133zM28.72 12c-1.227-3.893-4.2-7.013-8-8.453l-4.88 8.453h12.88zM29.067 13.333h-9.987l0.387 0.667 6.347 11c2.187-2.373 3.52-5.52 3.52-9 0-0.92-0.093-1.8-0.267-2.667zM11.387 16l-5.2-9c-2.173 2.373-3.52 5.52-3.52 9 0 0.92 0.093 1.8 0.267 2.667h9.987l-1.533-2.667zM3.28 20c1.227 3.893 4.2 7.013 8 8.453l4.88-8.453h-12.88zM18.307 20l-5.2 9.013c0.933 0.2 1.893 0.32 2.893 0.32 3.2 0 6.133-1.133 8.427-3l-4.88-8.467-1.24 2.133z"></path>
</symbol>
<symbol id="icon-check_circle" viewBox="0 0 32 32">
<title>check_circle</title>
<path d="M16 2.667c-7.36 0-13.333 5.973-13.333 13.333s5.973 13.333 13.333 13.333 13.333-5.973 13.333-13.333-5.973-13.333-13.333-13.333zM13.333 22.667l-6.667-6.667 1.88-1.88 4.787 4.773 10.12-10.12 1.88 1.893-12 12z"></path>
</symbol>
<symbol id="icon-twotone-comment" viewBox="0 0 32 32">
<title>twotone-comment</title>
<path class="twotone-inner" fill="#000" opacity="0.3" style="fill: var(--color1, #000)" d="M26.667 22.893v-17.56h-21.333v16h19.773l1.56 1.56zM24 18.667h-16v-2.667h16v2.667zM24 14.667h-16v-2.667h16v2.667zM24 10.667h-16v-2.667h16v2.667z"></path>
<path d="M5.333 24h18.667l5.333 5.333-0.013-24c0-1.467-1.187-2.667-2.653-2.667h-21.333c-1.467 0-2.667 1.2-2.667 2.667v16c0 1.467 1.2 2.667 2.667 2.667zM5.333 5.333h21.333v17.56l-1.56-1.56h-19.773v-16z"></path>
<path d="M8 16h16v2.667h-16v-2.667z"></path>
<path d="M8 12h16v2.667h-16v-2.667z"></path>
<path d="M8 8h16v2.667h-16v-2.667z"></path>
</symbol>
<symbol id="icon-twotone-posts" viewBox="0 0 32 32">
<title>twotone-posts</title>
<path class="twotone-inner" fill="#000" opacity="0.3" style="fill: var(--color1, #000)" d="M19.333 3.431h-9.333v21.333h16v-14.667h-6.667v-6.667zM23.333 22.098h-10.667v-2.667h10.667v2.667zM23.333 14.098v2.667h-10.667v-2.667h10.667z"></path>
<path d="M12.667 19.431h10.667v2.667h-10.667v-2.667z"></path>
<path d="M12.667 14.098h10.667v2.667h-10.667v-2.667z"></path>
<path d="M20.667 0.765h-10.667c-1.467 0-2.667 1.2-2.667 2.667v21.333c0 1.467 1.187 2.667 2.653 2.667h16.013c1.467 0 2.667-1.2 2.667-2.667v-16l-8-8zM26 24.765h-16v-21.333h9.333v6.667h6.667v14.667z"></path>
<path d="M3.333 27.182v-19.751c0-1.429 1.2-2.607 2.667-2.667v21.333c0 1.467 1.2 2.667 2.667 2.667h1.333v0.001c4.933 0.063 9.733 0.096 14.667 0.025l-0.267 1.009c-0.267 0.603-0.667 1.095-1.2 1.375-5.333 0.096-10.667 0.064-16-0.005-2-0.077-3.733-1.831-3.867-3.891v-0.097z"></path>
</symbol>
<symbol id="icon-arrow_back" viewBox="0 0 32 32">
<title>arrow_back</title>
<path d="M26.667 14.667h-16.227l7.453-7.453-1.893-1.88-10.667 10.667 10.667 10.667 1.88-1.88-7.44-7.453h16.227v-2.667z"></path>
</symbol>
<symbol id="icon-add" viewBox="0 0 32 32">
<title>add</title>
<path d="M25.333 17.333h-8v8h-2.667v-8h-8v-2.667h8v-8h2.667v8h8v2.667z"></path>
</symbol>
<symbol id="icon-search" viewBox="0 0 32 32">
<title>search</title>
<path d="M20.667 18.667h-1.053l-0.373-0.36c1.307-1.52 2.093-3.493 2.093-5.64 0-4.787-3.88-8.667-8.667-8.667s-8.667 3.88-8.667 8.667c0 4.787 3.88 8.667 8.667 8.667 2.147 0 4.12-0.787 5.64-2.093l0.36 0.373v1.053l6.667 6.653 1.987-1.987-6.653-6.667zM12.667 18.667c-3.32 0-6-2.68-6-6s2.68-6 6-6 6 2.68 6 6-2.68 6-6 6z"></path>
</symbol>
<symbol id="icon-menu" viewBox="0 0 32 32">
<title>menu</title>
<path d="M4 24h24v-2.667h-24v2.667zM4 17.333h24v-2.667h-24v2.667zM4 8v2.667h24v-2.667h-24z"></path>
</symbol>
<symbol id="icon-twotone-edit" viewBox="0 0 32 32">
<title>twotone-edit</title>
<path class="twotone-inner" fill="#000" opacity="0" style="fill: var(--color1, #000)" d="M6.667 24.107v1.227h1.227l12.080-12.080-1.227-1.227z"></path>
<path d="M27.613 9.387c0.52-0.52 0.52-1.36 0-1.88l-3.12-3.12c-0.267-0.267-0.6-0.387-0.947-0.387s-0.68 0.133-0.933 0.387l-2.44 2.44 5 5 2.44-2.44z"></path>
<path d="M4 23v5h5l14.747-14.747-5-5-14.747 14.747zM7.893 25.333h-1.227v-1.227l12.080-12.080 1.227 1.227-12.080 12.080z"></path>
</symbol>
<symbol id="icon-twotone-pages" viewBox="0 0 32 32">
<title>twotone-pages</title>
<path class="twotone-inner" fill="#000" opacity="0.3" style="fill: var(--color1, #000)" d="M4 8h10.667v17.333h-10.667v-17.333z"></path>
<path d="M28 5.333h-24c-1.467 0-2.667 1.2-2.667 2.667v17.333c0 1.467 1.2 2.667 2.667 2.667h24c1.467 0 2.667-1.2 2.667-2.667v-17.333c0-1.467-1.2-2.667-2.667-2.667zM14.667 25.333h-10.667v-17.333h10.667v17.333zM28 25.333h-10.667v-17.333h10.667v17.333z"></path>
<path d="M18.667 12.667h8v2h-8v-2z"></path>
<path d="M18.667 16h8v2h-8v-2z"></path>
<path d="M18.667 19.333h8v2h-8v-2z"></path>
</symbol>
<symbol id="icon-twotone-unpublish" viewBox="0 0 32 32">
<title>twotone-unpublish</title>
<path class="twotone-inner" fill="#000" opacity="0.3" style="fill: var(--color1, #000)" d="M8 5.333v21.333h16v-14.893l-6.44-6.44h-9.56zM22.293 17.333c0 3.307-2.693 6-6 6-2.453 0-4.573-1.493-5.493-3.6h2.053c0.76 1.080 2.013 1.8 3.44 1.8 2.32 0 4.2-1.88 4.2-4.2s-1.88-4.2-4.2-4.2c-1.613 0-3.027 0.933-3.72 2.28l1.933 1.92h-4.8v-4.8l1.56 1.56c1.067-1.653 2.92-2.76 5.040-2.76 3.307 0 5.987 2.693 5.987 6z"></path>
<path d="M18.667 2.667h-10.667c-1.467 0-2.653 1.2-2.653 2.667l-0.013 21.333c0 1.467 1.187 2.667 2.653 2.667h16.013c1.467 0 2.667-1.2 2.667-2.667v-16l-8-8zM24 26.667h-16v-21.333h9.56l6.44 6.44v14.893z"></path>
<path d="M11.267 14.093l-1.56-1.56v4.8h4.8l-1.92-1.92c0.693-1.347 2.107-2.28 3.72-2.28 2.32 0 4.2 1.88 4.2 4.2s-1.88 4.2-4.2 4.2c-1.427 0-2.693-0.72-3.44-1.8h-2.067c0.92 2.107 3.040 3.6 5.493 3.6 3.307 0 6-2.693 6-6s-2.693-6-6-6c-2.12 0-3.96 1.107-5.027 2.76z"></path>
</symbol>
<symbol id="icon-twotone-delete" viewBox="0 0 32 32">
<title>twotone-delete</title>
<path class="twotone-inner" fill="#000" opacity="0.3" style="fill: var(--color1, #000)" d="M10.667 12h10.667v13.333h-10.667v-13.333z"></path>
<path d="M20.667 5.333l-1.333-1.333h-6.667l-1.333 1.333h-4.667v2.667h18.667v-2.667z"></path>
<path d="M8 25.333c0 1.467 1.2 2.667 2.667 2.667h10.667c1.467 0 2.667-1.2 2.667-2.667v-16h-16v16zM10.667 12h10.667v13.333h-10.667v-13.333z"></path>
</symbol>
<symbol id="icon-twotone-publish" viewBox="0 0 32 32">
<title>twotone-publish</title>
<path class="twotone-inner" fill="#000" opacity="0.3" style="fill: var(--color1, #000)" d="M13.107 16h1.56v8h2.667v-8h1.56l-2.893-2.893z"></path>
<path d="M6.667 5.333h18.667v2.667h-18.667v-2.667z"></path>
<path d="M16 9.333l-9.333 9.333h5.333v8h8v-8h5.333l-9.333-9.333zM17.333 16v8h-2.667v-8h-1.56l2.893-2.893 2.893 2.893h-1.56z"></path>
</symbol>
</defs>
</svg>
